<svg width="469" height="340" viewBox="0 0 469 340" fill="none" xmlns="http://www.w3.org/2000/svg">
<g opacity="0.8">
<path d="M381.17 129.575C379.592 127.908 381.044 125.165 383.301 125.558C390.28 126.797 396.763 126.519 403.005 122.584C412.863 116.368 414.694 106.9 413.335 96.3444C412.069 86.5292 406.333 80.2096 396.913 77.6285C384.049 74.1098 372.372 76.2511 363.447 86.8533C354.222 97.8143 352.495 110.442 357.516 123.718C362.272 136.323 371.416 145.791 381.205 154.552C397.086 168.777 411.262 184.09 419.186 204.566C439.535 257.079 413.612 313.169 360.475 331.028C348.556 335.033 336.406 337.475 323.842 337.695C323.255 337.695 322.667 337.695 322.091 337.661C319.869 337.533 319.051 334.755 320.79 333.355C320.79 333.355 320.813 333.332 320.825 333.332C348.303 310.831 351.055 270.286 326.894 244.092C317.312 233.699 305.047 226.453 294.913 216.788C262.011 185.398 251.185 146.068 256.656 101.946C261.792 60.5214 281.404 27.8929 320.744 11.272C360.625 -5.56885 400.299 -4.68919 436.564 21.7585C465.781 43.0671 476.917 84.55 463.12 115.882C448.529 149.02 405.758 155.49 381.182 129.575H381.17Z" fill="#C8C3C3"/>
<path d="M257.671 256.686C243.333 254.822 229.202 264.498 223.652 279.001C222.085 283.11 221.153 287.485 220.208 291.803C219.655 294.337 219.206 296.675 216.396 297.613C213.344 296.016 213.414 293.18 213.218 290.564C212.25 277.902 212.607 264.892 218.055 253.642C223.594 242.206 229.018 230.782 234.085 219.115C237.437 211.395 245.21 208.733 252.016 212.703C269.763 223.039 290.078 228.097 306.753 240.528C335.13 261.697 341.141 296.305 320.377 321.375C310.381 333.448 297.552 339.929 281.751 339.964C261.989 340.01 242.216 339.999 222.454 339.999C219.16 339.999 215.786 340.172 213.943 335.242C221.417 321.074 234.765 329.894 246.201 327.579C233.993 316.954 224.089 305.194 226.646 287.752C229.122 270.864 238.819 260.91 257.671 256.674V256.686Z" fill="#C8C3C3"/>
<path d="M124.227 327.358C119.447 325.472 115.797 323.203 113.275 320.529C110.764 317.867 109.497 314.811 109.497 311.351C109.497 309.163 109.762 307.196 110.257 305.471C110.764 303.746 111.524 301.79 112.526 299.591L139.463 237.031C139.716 236.441 140.292 236.059 140.925 236.059H158.269C158.776 236.059 159.167 235.631 159.144 235.121C159.11 234.218 159.11 233.281 159.167 232.297C159.202 231.788 158.799 231.348 158.292 231.348H144.334C143.182 231.348 142.411 230.167 142.872 229.103L217.175 56.5503C217.359 56.122 217.774 55.8558 218.234 55.8558C218.695 55.8558 219.11 56.122 219.294 56.5503L243.455 111.645C243.616 112.015 244.146 111.923 244.181 111.517C244.388 108.439 245.067 102.142 245.286 100.117C245.332 99.6999 245.263 99.2717 245.102 98.8897L204.472 6.66433C203.655 4.81241 201.835 3.62024 199.82 3.62024H198.864C196.86 3.62024 195.052 4.80084 194.223 6.6296L61.1632 302.89C58.1459 308.538 55.002 313.399 51.7198 317.474C48.4492 321.559 44.5451 324.696 40.0192 326.884C35.4933 329.083 29.954 330.645 23.4012 331.594C17.1939 332.486 9.84646 332.96 1.37044 333.007C0.610365 333.007 0 333.62 0 334.384V336.34C0 337.104 0.610365 337.717 1.37044 337.717H161.989C162.611 337.717 163.117 337.208 163.117 336.583V334.129C163.117 333.504 162.611 333.007 161.989 333.007C154.388 332.96 147.455 332.497 141.213 331.594C134.672 330.657 129.017 329.245 124.227 327.358Z" fill="#C8C3C3"/>
<path d="M378.229 337.706H397.243C397.634 337.706 397.957 337.382 397.957 336.988V333.724C397.957 333.331 397.634 333.007 397.243 333.007C393.109 332.984 389.193 332.787 385.473 332.428C385.324 332.416 385.185 332.451 385.059 332.521C382.732 333.875 380.348 335.16 377.919 336.352C377.239 336.687 377.481 337.718 378.241 337.718L378.229 337.706Z" fill="#C8C3C3"/>
<path d="M206.547 185.074C212.11 170.988 218.789 161.971 226.782 157.608C228.359 158.094 228.682 159.46 228.728 160.802C229.142 173.187 232.805 184.541 238.839 195.317C241.05 199.264 240.509 204.091 236.651 206.799C228.405 212.61 225.757 221.337 223.315 230.272C220.758 239.636 215.104 244.416 205.177 244.763C197.714 245.018 190.229 245.007 182.766 244.752C173.38 244.428 169.165 239.069 171.077 229.821C175.373 209.056 186.693 193.789 206.547 185.085V185.074Z" fill="#C8C3C3"/>
</g>
</svg>